<?xml version="1.0" ?><!DOCTYPE svg  PUBLIC '-//W3C//DTD SVG 1.1//EN'  'http://www.w3.org/Graphics/SVG/1.1/DTD/svg11.dtd'><svg height="512px" style="enable-background:new 0 0 512 512;" version="1.1" viewBox="0 0 512 512" width="512px" xml:space="preserve" xmlns="http://www.w3.org/2000/svg" xmlns:xlink="http://www.w3.org/1999/xlink"><g id="_x32_26-neos"><g><g id="XMLID_9_"><g><g><polygon points="456.055,34.495 456.055,437.505 376.055,437.505 96.055,34.495 186.055,34.495        297.945,189.385 376.055,297.505 376.055,34.495      " style="fill:#00ADEE;"/></g><g><polygon points="456.055,437.505 396.055,477.505 326.055,477.505 216.305,327.325 136.055,217.505        136.055,421.615 56.055,477.505 55.945,57.295 96.055,34.495 376.055,437.505      " style="fill:#26224C;"/></g><g><polygon points="376.055,34.495 376.055,297.505 300.526,192.755 300.555,87.505      " style="fill:#26224C;"/></g><g><polygon points="136.055,217.505 216.305,327.325 216.055,327.505 216.055,427.505 143.715,477.505        56.055,477.505 136.055,421.615      " style="fill:#00ADEE;"/></g></g></g></g></g><g id="Layer_1"/></svg>